<?xml version="1.0" standalone="no"?>
<!DOCTYPE svg PUBLIC "-//W3C//DTD SVG 20010904//EN"
 "http://www.w3.org/TR/2001/REC-SVG-20010904/DTD/svg10.dtd">
<svg version="1.0" xmlns="http://www.w3.org/2000/svg"
 width="500.000000pt" height="500.000000pt" viewBox="0 0 500.000000 500.000000"
 preserveAspectRatio="xMidYMid meet">

<g transform="translate(0.000000,500.000000) scale(0.100000,-0.100000)"
fill="#000000" stroke="none">
<path d="M2030 4128 c0 -265 2 -310 14 -298 65 69 536 601 536 605 0 3 -124 5
-275 5 l-275 0 0 -312z"/>
<path d="M2680 4214 c-102 -114 -193 -217 -203 -230 l-18 -23 128 -143 c70
-79 157 -177 194 -218 l67 -75 -365 3 c-259 3 -363 0 -358 -7 3 -6 2 -11 -4
-11 -5 0 -14 6 -18 14 -6 11 -12 10 -27 -5 -18 -18 -5 -18 388 -19 l406 0 0
460 c0 253 -1 460 -3 460 -1 0 -86 -93 -187 -206z"/>
<path d="M1430 3258 l0 -228 188 146 c103 80 220 171 261 203 41 31 87 67 103
81 l29 25 -290 0 -291 0 0 -227z"/>
<path d="M2914 3483 c-8 -5 104 -85 308 -220 207 -138 312 -203 300 -185 -31
44 -36 56 -24 48 8 -5 12 2 12 18 0 14 6 26 13 26 8 0 8 3 -2 9 -12 8 -13 12
-1 26 11 13 11 18 0 28 -10 10 -12 8 -7 -6 4 -11 3 -16 -4 -12 -6 4 -8 14 -5
22 8 20 -23 69 -71 114 -54 51 -89 72 -166 103 -59 23 -87 28 -205 32 -75 3
-142 2 -148 -3z"/>
<path d="M2231 3296 c-1 -10 10 -31 23 -47 14 -17 23 -38 21 -49 -2 -12 0 -18
6 -15 5 4 6 12 3 18 -4 7 5 1 19 -12 15 -14 27 -27 27 -29 0 -3 -8 3 -19 12
-27 25 -30 11 -30 -175 l0 -162 41 39 42 39 -32 -38 c-18 -21 -32 -39 -32 -40
0 -2 14 -4 31 -5 21 -2 28 1 23 9 -5 8 -3 9 6 4 14 -8 207 -15 228 -7 10 3 10
8 0 21 -7 9 2 3 19 -13 29 -26 31 -26 26 -7 -3 11 -9 21 -13 21 -4 0 -8 71 -7
158 0 136 2 161 18 183 10 14 16 29 12 33 -4 3 4 17 16 30 l22 24 -43 5 c-24
3 -123 4 -221 4 -110 -1 -179 2 -181 8 -3 6 -5 2 -5 -9z m378 -106 c-18 -22
-34 -40 -37 -40 -5 0 12 24 42 58 33 37 29 25 -5 -18z m-38 -297 c13 -16 12
-17 -3 -4 -10 7 -18 15 -18 17 0 8 8 3 21 -13z"/>
<path d="M1430 2775 l0 -225 296 0 295 0 -68 52 c-37 29 -168 130 -291 225
-122 95 -224 173 -227 173 -3 0 -5 -101 -5 -225z"/>
<path d="M3208 2767 l-316 -212 131 -3 c72 -1 154 2 181 8 58 12 158 62 204
101 44 38 104 120 98 135 -3 7 0 16 6 20 7 4 8 3 4 -4 -4 -7 -5 -12 -2 -12 3
0 10 10 17 22 10 18 9 20 -5 15 -12 -5 -16 0 -17 21 0 15 -2 38 -4 52 -1 14 4
35 11 48 8 12 13 22 12 21 -2 0 -146 -96 -320 -212z m287 153 c3 -5 1 -10 -4
-10 -6 0 -11 5 -11 10 0 6 2 10 4 10 3 0 8 -4 11 -10z"/>
<path d="M2037 2533 c-4 -3 -7 -108 -7 -233 l0 -226 204 -230 c113 -126 211
-230 218 -231 7 -1 67 59 133 134 66 75 157 178 203 229 l82 93 0 235 0 236
-413 0 c-228 0 -417 -3 -420 -7z m803 -19 c0 -6 -109 -132 -294 -339 -49 -55
-90 -101 -92 -103 -3 -4 -375 415 -377 425 -1 4 153 10 343 13 190 3 362 6
383 7 20 2 37 0 37 -3z"/>
<path d="M2711 1288 c-132 -23 -212 -162 -211 -367 2 -259 116 -388 317 -354
35 6 75 19 89 27 24 16 24 17 8 49 -28 55 -33 58 -65 42 -15 -8 -49 -15 -74
-15 -38 0 -52 5 -75 28 -37 38 -51 86 -57 210 -10 179 26 271 110 287 29 6 46
2 83 -19 26 -14 48 -26 50 -26 8 0 26 80 21 94 -14 37 -113 59 -196 44z"/>
<path d="M1425 1267 c-3 -6 -4 -163 -3 -347 l3 -335 188 -3 187 -2 0 50 0 50
-52 1 c-29 1 -57 1 -63 -1 -5 -1 -35 2 -67 5 l-58 7 0 99 0 98 98 3 97 3 0 50
0 50 -97 3 -98 3 0 89 0 90 110 0 109 0 10 38 c19 65 28 62 -174 62 -140 0
-187 -3 -190 -13z"/>
<path d="M2052 1178 c-61 -195 -182 -590 -182 -594 0 -2 31 -4 69 -4 l68 0 28
110 29 110 81 0 82 0 21 -72 c12 -40 25 -89 30 -108 l8 -35 72 -3 c54 -2 72 0
72 10 0 7 -11 47 -24 88 -14 41 -39 122 -56 180 -18 58 -54 175 -80 260 l-48
155 -69 3 -68 3 -33 -103z m144 -255 l7 -33 -60 0 -60 0 23 108 c13 59 27 125
30 147 7 41 10 31 60 -222z"/>
<path d="M3050 930 l0 -350 63 0 64 0 91 198 c50 108 97 213 105 232 14 33 15
18 16 -198 l1 -233 68 3 67 3 0 345 0 345 -65 3 -66 3 -78 -168 c-43 -92 -90
-196 -104 -230 -14 -35 -28 -63 -31 -63 -3 0 -4 103 -3 230 l4 230 -66 0 -66
0 0 -350z"/>
</g>
</svg>
